<mxfile host="65bd71144e">
    <diagram id="jNAvO_KU7QVU9FGGxPvo" name="PÃ¡gina-1">
        <mxGraphModel dx="1355" dy="688" grid="1" gridSize="10" guides="1" tooltips="1" connect="1" arrows="1" fold="1" page="1" pageScale="1" pageWidth="850" pageHeight="1100" math="0" shadow="0">
            <root>
                <mxCell id="0"/>
                <mxCell id="1" parent="0"/>
                <mxCell id="2" value="Peliculas" style="swimlane;childLayout=stackLayout;horizontal=1;startSize=50;horizontalStack=0;rounded=1;fontSize=14;fontStyle=0;strokeWidth=2;resizeParent=0;resizeLast=1;shadow=0;dashed=0;align=center;arcSize=4;whiteSpace=wrap;html=1;" vertex="1" parent="1">
                    <mxGeometry x="20" y="1380" width="230" height="140" as="geometry"/>
                </mxCell>
                <mxCell id="3" value="" style="endArrow=none;html=1;rounded=0;" edge="1" parent="2">
                    <mxGeometry relative="1" as="geometry">
                        <mxPoint y="80" as="sourcePoint"/>
                        <mxPoint x="230" y="80" as="targetPoint"/>
                    </mxGeometry>
                </mxCell>
                <mxCell id="4" value="" style="endArrow=none;html=1;rounded=0;" edge="1" parent="2">
                    <mxGeometry relative="1" as="geometry">
                        <mxPoint y="50" as="sourcePoint"/>
                        <mxPoint x="160" y="50" as="targetPoint"/>
                    </mxGeometry>
                </mxCell>
                <mxCell id="5" value="" style="endArrow=none;html=1;rounded=0;entryX=0.25;entryY=1;entryDx=0;entryDy=0;" edge="1" parent="2">
                    <mxGeometry relative="1" as="geometry">
                        <mxPoint x="140" y="50" as="sourcePoint"/>
                        <mxPoint x="140" y="140" as="targetPoint"/>
                    </mxGeometry>
                </mxCell>
                <mxCell id="6" value="" style="resizable=0;html=1;whiteSpace=wrap;align=right;verticalAlign=bottom;" connectable="0" vertex="1" parent="5">
                    <mxGeometry x="1" relative="1" as="geometry"/>
                </mxCell>
                <mxCell id="7" value="" style="endArrow=none;html=1;rounded=0;entryX=0.25;entryY=1;entryDx=0;entryDy=0;" edge="1" parent="2">
                    <mxGeometry relative="1" as="geometry">
                        <mxPoint x="40" y="50" as="sourcePoint"/>
                        <mxPoint x="40" y="140" as="targetPoint"/>
                    </mxGeometry>
                </mxCell>
                <mxCell id="8" value="" style="resizable=0;html=1;whiteSpace=wrap;align=right;verticalAlign=bottom;" connectable="0" vertex="1" parent="7">
                    <mxGeometry x="1" relative="1" as="geometry"/>
                </mxCell>
                <mxCell id="9" value="" style="endArrow=none;html=1;rounded=0;" edge="1" parent="2">
                    <mxGeometry relative="1" as="geometry">
                        <mxPoint y="110" as="sourcePoint"/>
                        <mxPoint x="230" y="110" as="targetPoint"/>
                    </mxGeometry>
                </mxCell>
                <mxCell id="10" value="PK" style="text;html=1;align=center;verticalAlign=middle;resizable=0;points=[];autosize=1;strokeColor=none;fillColor=none;" vertex="1" parent="1">
                    <mxGeometry x="20" y="1435" width="40" height="30" as="geometry"/>
                </mxCell>
                <mxCell id="11" value="id" style="text;html=1;align=center;verticalAlign=middle;resizable=0;points=[];autosize=1;strokeColor=none;fillColor=none;fontFamily=Helvetica;fontSize=12;fontColor=default;" vertex="1" parent="1">
                    <mxGeometry x="95" y="1435" width="30" height="30" as="geometry"/>
                </mxCell>
                <mxCell id="12" value="nombre" style="text;html=1;align=center;verticalAlign=middle;resizable=0;points=[];autosize=1;strokeColor=none;fillColor=none;fontFamily=Helvetica;fontSize=12;fontColor=default;" vertex="1" parent="1">
                    <mxGeometry x="80" y="1465" width="60" height="30" as="geometry"/>
                </mxCell>
                <mxCell id="13" value="anno" style="text;html=1;align=center;verticalAlign=middle;resizable=0;points=[];autosize=1;strokeColor=none;fillColor=none;fontFamily=Helvetica;fontSize=12;fontColor=default;" vertex="1" parent="1">
                    <mxGeometry x="85" y="1485" width="50" height="30" as="geometry"/>
                </mxCell>
                <mxCell id="14" value="integer" style="text;html=1;align=center;verticalAlign=middle;resizable=0;points=[];autosize=1;strokeColor=none;fillColor=none;fontFamily=Helvetica;fontSize=12;fontColor=default;" vertex="1" parent="1">
                    <mxGeometry x="160" y="1435" width="60" height="30" as="geometry"/>
                </mxCell>
                <mxCell id="15" value="varchar(255)" style="text;html=1;align=center;verticalAlign=middle;resizable=0;points=[];autosize=1;strokeColor=none;fillColor=none;fontFamily=Helvetica;fontSize=12;fontColor=default;" vertex="1" parent="1">
                    <mxGeometry x="165" y="1465" width="90" height="30" as="geometry"/>
                </mxCell>
                <mxCell id="16" value="integer" style="text;html=1;align=center;verticalAlign=middle;resizable=0;points=[];autosize=1;strokeColor=none;fillColor=none;fontFamily=Helvetica;fontSize=12;fontColor=default;" vertex="1" parent="1">
                    <mxGeometry x="165" y="1485" width="60" height="30" as="geometry"/>
                </mxCell>
                <mxCell id="17" value="Tags" style="swimlane;childLayout=stackLayout;horizontal=1;startSize=50;horizontalStack=0;rounded=1;fontSize=14;fontStyle=0;strokeWidth=2;resizeParent=0;resizeLast=1;shadow=0;dashed=0;align=center;arcSize=4;whiteSpace=wrap;html=1;" vertex="1" parent="1">
                    <mxGeometry x="600" y="1420" width="234" height="110" as="geometry"/>
                </mxCell>
                <mxCell id="18" value="" style="endArrow=none;html=1;rounded=0;" edge="1" parent="17">
                    <mxGeometry relative="1" as="geometry">
                        <mxPoint y="80" as="sourcePoint"/>
                        <mxPoint x="230" y="80" as="targetPoint"/>
                    </mxGeometry>
                </mxCell>
                <mxCell id="19" value="" style="endArrow=none;html=1;rounded=0;" edge="1" parent="17">
                    <mxGeometry relative="1" as="geometry">
                        <mxPoint y="50" as="sourcePoint"/>
                        <mxPoint x="160" y="50" as="targetPoint"/>
                    </mxGeometry>
                </mxCell>
                <mxCell id="20" value="" style="endArrow=none;html=1;rounded=0;" edge="1" parent="17">
                    <mxGeometry relative="1" as="geometry">
                        <mxPoint x="140" y="50" as="sourcePoint"/>
                        <mxPoint x="140" y="110" as="targetPoint"/>
                    </mxGeometry>
                </mxCell>
                <mxCell id="21" value="" style="resizable=0;html=1;whiteSpace=wrap;align=right;verticalAlign=bottom;" connectable="0" vertex="1" parent="20">
                    <mxGeometry x="1" relative="1" as="geometry"/>
                </mxCell>
                <mxCell id="22" value="" style="endArrow=none;html=1;rounded=0;" edge="1" parent="17">
                    <mxGeometry relative="1" as="geometry">
                        <mxPoint x="40" y="50" as="sourcePoint"/>
                        <mxPoint x="40" y="110" as="targetPoint"/>
                    </mxGeometry>
                </mxCell>
                <mxCell id="23" value="" style="resizable=0;html=1;whiteSpace=wrap;align=right;verticalAlign=bottom;" connectable="0" vertex="1" parent="22">
                    <mxGeometry x="1" relative="1" as="geometry"/>
                </mxCell>
                <mxCell id="24" value="PK" style="text;html=1;align=center;verticalAlign=middle;resizable=0;points=[];autosize=1;strokeColor=none;fillColor=none;" vertex="1" parent="1">
                    <mxGeometry x="604" y="1475" width="40" height="30" as="geometry"/>
                </mxCell>
                <mxCell id="25" value="id" style="text;html=1;align=center;verticalAlign=middle;resizable=0;points=[];autosize=1;strokeColor=none;fillColor=none;fontFamily=Helvetica;fontSize=12;fontColor=default;" vertex="1" parent="1">
                    <mxGeometry x="679" y="1475" width="30" height="30" as="geometry"/>
                </mxCell>
                <mxCell id="26" value="tag" style="text;html=1;align=center;verticalAlign=middle;resizable=0;points=[];autosize=1;strokeColor=none;fillColor=none;fontFamily=Helvetica;fontSize=12;fontColor=default;" vertex="1" parent="1">
                    <mxGeometry x="674" y="1505" width="40" height="30" as="geometry"/>
                </mxCell>
                <mxCell id="27" value="integer" style="text;html=1;align=center;verticalAlign=middle;resizable=0;points=[];autosize=1;strokeColor=none;fillColor=none;fontFamily=Helvetica;fontSize=12;fontColor=default;" vertex="1" parent="1">
                    <mxGeometry x="744" y="1475" width="60" height="30" as="geometry"/>
                </mxCell>
                <mxCell id="28" value="varchar(32)" style="text;html=1;align=center;verticalAlign=middle;resizable=0;points=[];autosize=1;strokeColor=none;fillColor=none;fontFamily=Helvetica;fontSize=12;fontColor=default;" vertex="1" parent="1">
                    <mxGeometry x="754" y="1505" width="80" height="30" as="geometry"/>
                </mxCell>
                <mxCell id="29" value="Peliculas_tags" style="swimlane;childLayout=stackLayout;horizontal=1;startSize=50;horizontalStack=0;rounded=1;fontSize=14;fontStyle=0;strokeWidth=2;resizeParent=0;resizeLast=1;shadow=0;dashed=0;align=center;arcSize=4;whiteSpace=wrap;html=1;" vertex="1" parent="1">
                    <mxGeometry x="330" y="1250" width="230" height="140" as="geometry"/>
                </mxCell>
                <mxCell id="30" value="" style="endArrow=none;html=1;rounded=0;" edge="1" parent="29">
                    <mxGeometry relative="1" as="geometry">
                        <mxPoint y="80" as="sourcePoint"/>
                        <mxPoint x="230" y="80" as="targetPoint"/>
                    </mxGeometry>
                </mxCell>
                <mxCell id="31" value="" style="endArrow=none;html=1;rounded=0;" edge="1" parent="29">
                    <mxGeometry relative="1" as="geometry">
                        <mxPoint y="50" as="sourcePoint"/>
                        <mxPoint x="160" y="50" as="targetPoint"/>
                    </mxGeometry>
                </mxCell>
                <mxCell id="32" value="" style="endArrow=none;html=1;rounded=0;entryX=0.25;entryY=1;entryDx=0;entryDy=0;" edge="1" parent="29">
                    <mxGeometry relative="1" as="geometry">
                        <mxPoint x="140" y="50" as="sourcePoint"/>
                        <mxPoint x="140" y="140" as="targetPoint"/>
                    </mxGeometry>
                </mxCell>
                <mxCell id="33" value="" style="resizable=0;html=1;whiteSpace=wrap;align=right;verticalAlign=bottom;" connectable="0" vertex="1" parent="32">
                    <mxGeometry x="1" relative="1" as="geometry"/>
                </mxCell>
                <mxCell id="34" value="" style="endArrow=none;html=1;rounded=0;entryX=0.25;entryY=1;entryDx=0;entryDy=0;" edge="1" parent="29">
                    <mxGeometry relative="1" as="geometry">
                        <mxPoint x="40" y="50" as="sourcePoint"/>
                        <mxPoint x="40" y="140" as="targetPoint"/>
                    </mxGeometry>
                </mxCell>
                <mxCell id="35" value="" style="resizable=0;html=1;whiteSpace=wrap;align=right;verticalAlign=bottom;" connectable="0" vertex="1" parent="34">
                    <mxGeometry x="1" relative="1" as="geometry"/>
                </mxCell>
                <mxCell id="36" value="" style="endArrow=none;html=1;rounded=0;" edge="1" parent="29">
                    <mxGeometry relative="1" as="geometry">
                        <mxPoint y="110" as="sourcePoint"/>
                        <mxPoint x="230" y="110" as="targetPoint"/>
                    </mxGeometry>
                </mxCell>
                <mxCell id="37" value="PK" style="text;html=1;align=center;verticalAlign=middle;resizable=0;points=[];autosize=1;strokeColor=none;fillColor=none;" vertex="1" parent="1">
                    <mxGeometry x="330" y="1305" width="40" height="30" as="geometry"/>
                </mxCell>
                <mxCell id="38" value="id" style="text;html=1;align=center;verticalAlign=middle;resizable=0;points=[];autosize=1;strokeColor=none;fillColor=none;fontFamily=Helvetica;fontSize=12;fontColor=default;" vertex="1" parent="1">
                    <mxGeometry x="405" y="1305" width="30" height="30" as="geometry"/>
                </mxCell>
                <mxCell id="44" value="FK" style="text;html=1;align=center;verticalAlign=middle;resizable=0;points=[];autosize=1;strokeColor=none;fillColor=none;" vertex="1" parent="1">
                    <mxGeometry x="332" y="1335" width="40" height="30" as="geometry"/>
                </mxCell>
                <mxCell id="45" value="FK&lt;br&gt;" style="text;html=1;align=center;verticalAlign=middle;resizable=0;points=[];autosize=1;strokeColor=none;fillColor=none;" vertex="1" parent="1">
                    <mxGeometry x="332" y="1365" width="40" height="30" as="geometry"/>
                </mxCell>
                <mxCell id="47" value="tag_id" style="text;html=1;align=center;verticalAlign=middle;resizable=0;points=[];autosize=1;strokeColor=none;fillColor=none;" vertex="1" parent="1">
                    <mxGeometry x="382" y="1365" width="60" height="30" as="geometry"/>
                </mxCell>
                <mxCell id="48" value="peliculas_id" style="text;html=1;align=center;verticalAlign=middle;resizable=0;points=[];autosize=1;strokeColor=none;fillColor=none;" vertex="1" parent="1">
                    <mxGeometry x="377" y="1335" width="90" height="30" as="geometry"/>
                </mxCell>
                <mxCell id="49" value="int" style="text;html=1;align=center;verticalAlign=middle;resizable=0;points=[];autosize=1;strokeColor=none;fillColor=none;" vertex="1" parent="1">
                    <mxGeometry x="492" y="1305" width="40" height="30" as="geometry"/>
                </mxCell>
                <mxCell id="50" value="int" style="text;html=1;align=center;verticalAlign=middle;resizable=0;points=[];autosize=1;strokeColor=none;fillColor=none;" vertex="1" parent="1">
                    <mxGeometry x="492" y="1335" width="40" height="30" as="geometry"/>
                </mxCell>
                <mxCell id="51" value="int" style="text;html=1;align=center;verticalAlign=middle;resizable=0;points=[];autosize=1;strokeColor=none;fillColor=none;" vertex="1" parent="1">
                    <mxGeometry x="492" y="1365" width="40" height="30" as="geometry"/>
                </mxCell>
                <mxCell id="52" value="" style="endArrow=none;html=1;rounded=0;" edge="1" parent="1">
                    <mxGeometry relative="1" as="geometry">
                        <mxPoint x="250" y="1500" as="sourcePoint"/>
                        <mxPoint x="330" y="1350" as="targetPoint"/>
                        <Array as="points">
                            <mxPoint x="280" y="1500"/>
                            <mxPoint x="280" y="1480"/>
                            <mxPoint x="280" y="1350"/>
                        </Array>
                    </mxGeometry>
                </mxCell>
                <mxCell id="53" value="1" style="resizable=0;html=1;align=left;verticalAlign=bottom;" connectable="0" vertex="1" parent="52">
                    <mxGeometry x="-1" relative="1" as="geometry">
                        <mxPoint x="5" as="offset"/>
                    </mxGeometry>
                </mxCell>
                <mxCell id="54" value="N" style="resizable=0;html=1;align=right;verticalAlign=bottom;" connectable="0" vertex="1" parent="52">
                    <mxGeometry x="1" relative="1" as="geometry">
                        <mxPoint x="-10" as="offset"/>
                    </mxGeometry>
                </mxCell>
                <mxCell id="55" value="" style="endArrow=none;html=1;rounded=0;exitX=1;exitY=0.75;exitDx=0;exitDy=0;" edge="1" parent="1" source="29">
                    <mxGeometry relative="1" as="geometry">
                        <mxPoint x="500" y="1570" as="sourcePoint"/>
                        <mxPoint x="600" y="1500" as="targetPoint"/>
                        <Array as="points">
                            <mxPoint x="580" y="1355"/>
                            <mxPoint x="580" y="1500"/>
                        </Array>
                    </mxGeometry>
                </mxCell>
                <mxCell id="56" value="N" style="resizable=0;html=1;align=left;verticalAlign=bottom;" connectable="0" vertex="1" parent="55">
                    <mxGeometry x="-1" relative="1" as="geometry"/>
                </mxCell>
                <mxCell id="57" value="1" style="resizable=0;html=1;align=right;verticalAlign=bottom;" connectable="0" vertex="1" parent="55">
                    <mxGeometry x="1" relative="1" as="geometry">
                        <mxPoint x="-10" as="offset"/>
                    </mxGeometry>
                </mxCell>
                <mxCell id="58" value="" style="shape=image;verticalLabelPosition=bottom;labelBackgroundColor=default;verticalAlign=top;aspect=fixed;imageAspect=0;image=data:image/png,iVBORw0KGgoAAAANSUhEUgAAAmUAAACxCAYAAACFv8o3AAAAAXNSR0IArs4c6QAAAARnQU1BAACxjwv8YQUAAAAJcEhZcwAADsMAAA7DAcdvqGQAADdzSURBVHhe7Z0JnE11/8e/tjEYNZYWS5ZWUvJoUciD7IkkIokiiRZKRSl5sv2V9p7KGi20eYQWJSklpOwlpCgttJBsw8z53/fPPYxpMMPM3HPvfN5ex517tnvu73fuOZ/z3X55vBAmhBBCCCEiSt7wqxBCCCGEiCASZUIIIYQQAUCiTAghhBAiAEiUCSGEEEIEAIkyIYQQQogAIFEmhBBCCBEAJMqEEEIIIQKARJkQQgghRACQKBNCCCGECAASZUIIIYQQAUCiTAghhBAiAEiUCSGEEEIEAIkyIYQQQogAIFEmhBBCCBEAJMqEEEIIIQKARJkQQgghRACQKBNCCCGECAASZUIIIYQQAeCoRVnKzzNsxB29rFevXta7953Wf/AT9vKcdbY9vPyISV5pQy8sZBV7zgrPyEp22Qc9yluhi4bZN8nhWRkleY29fMd1NmDaT5YSnnVUZPX+ooJkWzn0QitUsWf4/aHZ9UEPK1/oIhuW6c4SQgghooejF2W/zbOJT462GSv/tM2bN9q3816x/s0r2xlNBtvHf8SgzEjebD+s/Mq++XmreeFZR0UW7y955QTr3elem/xD7pF4QgghRCyQNe7LPIlW+7aRNm7ceJs47VNbuWSCNf5+sF1982v2S6xpg7jz7O635tukbmdYvvCsoyKL95e8aZFNf3WGLdssUSaEEEJEE9kSUxZX4Up7aPAVljzlcRu/ync5bbOVU4ZYt1b1rVbNuta88wB77att4WWw09ZMGWidml5stepdbjc9Ptd+T6MrUv74wl7o39ma16ttdZpcbXeNnm+bDqE9Uv5cZC/e29Ga1q1t9Vp0tcFTv7Vd4WWHJGWjzX32dmvbsLZddHFja9dntM33DyZpgQ27rKZd9/z6fe7G7d+8YQM6NrGLa9Wzy296zN4Zd5vVvnSIW7blf7dYzbr32Af7PjjJPn2widXs/kr4bdr9pdifi160ezs2tbq161mLroNt6rf+xjvtrTtqWcMB/7MPn7rFrqhf22o3uMr6TvrKtoe+2ccDGljNbpPsx6SVNqr9hdbkwU/3bpbypy168V7r2LSu1a7XwroOnmr7dnkA4f33n2hThna1FnVrhdr5Grt/8ir7e/1Me6R7K6tfq5ZdcuXtNvaLzeFtIMX++OIF69+5udWrXceaXH2XjZ6/6QB37M41U2xgp6bhNnrc5v6jczN6jHDoz9v+9o1WPrG63b8gKTxHCCGECD7ZFuhfrF49q25Lbe78raF3yfbtqPZWr9NLtvmc9tazZ1s7fd1Iu+bS2+0dFodup79Pu8WatHvCVpzQ0Nq3rW1FZv2fPbdoNwv38vccu69Rfbv17RS7qEN3u7ZOnH1wV0Nr3G+2bQmvcgDb5tnAJvXt9lnxVveaG6xNlZ9t9NWNrOebm8IrHIw9tvzh1tas/6d2bKPrrXuHGrZ7ei9r3GqELd8TWuxttfVLF9nKX3Y4d2PKxv9Zzybt7cmvjrdL2rW12oXft969n7V5S9ft3dtva2zRkrX2x75wqBTbsm6pLVq1ce/bNPvbNm+gNal/u82Kr2vX3NDGqvw82q5u1NPedOozJEa+/dJmP3Kj3fpeQavZpp01PO4r++9119pDi/NY5bb326AeF1uJ/GWs8R1D7d7WldijzRvYxOrfPsvi615jN7SpYj+Pvtoa9XwzHUG7d/8fjrjTHv62vDVq18Zqxs2zh65uYNUa3GwzC9eyK69uZhXWj7fube61D8KBg3/Puc8a1b/V3k65yDp0v9bqxH1gdzVsbP1m7+2ZlN+n2S1N2tkTK06whu1DbVRklv3fc4tsf+9m5hgP/3kFz2xu3XtcZ5dUyO/eCyGEEFGBd5TsXvqAd25cGa/r2zvDc8LsmOx1KF7Qq/PId6E327x5o/p6945f5O3au9Tbvfh+718FT/V6fRyak/y993i9wl6xFmO8DcnhFXZ95t11ZpxXoccHoTfJ3rqnGnhFi13qjVzvr5Ds/Tjucq9kQj3vsbV7wvN8kr0NI5t5iSdc5U3c6K+/2ZvSqbSX0PiZ0N87vZk3lfPiLxzqrUy7qfebN7JJQe+Y1i95f4Xn7Jz3hNe144PeO7/zZqZ3U7l478KhK709oX9rH63rFU5sluq4dnpz76zsxZXt5t79NrKJF594lffqNvc2xA7vrS6lvPh6T+x9m3p/yRu8kc0SvROumujtP+wpXqfSCV7jZ34KvdnmTWhZ0CtQc5j3jX/cW1/z2ofa+ZKnWB5qto97eafGn+s9sHS3e5+8YaTXLPEE76qJG0OtspfNUzp5pRMae8/85M/xYf/xXqHGz3q/+Iv+fNFrdWwB77TbPgod+V52fXybd2rBat79i0OfkbzOe6pBUa/YpSO9/V3zozfu8pJeQr3HvLV7kr3vH6/nFS7Wwhuzv3O9z+4604ur0MO9O9wx7px5k1cu/kJvKJ112M8LzxNCCCGijGyzlFlKkiXtNstfIC70prDV6DrIbqu61p574E67ufsN1v3/ZtqvoXV2JXlmSUts0YoUq9agsZ3oH1G+REss6r9JsgWfLrSk6k2teRl/Xl4r06K51Uj+wj6dn9bPlWSff7LAtuXfYNP7dbOuXbuGpjts4spk27Xm6/A6ByPR6rVqZEXe7mMN2vexhybMsFUVb7RRE/pbk+LhVfax25Yt/sqSqzawhvuOK78VK3aM5Qm/yxRJn9snC7ZZ/g3TrV83jjk03THRVibvsjVfrw6vlMfyHV/GyvoBaAWKWtHCeWzn9vTzXZM+/8QWbMtvG6b3s26uHbraHRNXWvKuNfb1akx//yRfwjG2r+nji1nxwvmsVPlyRk9C3mMT7Zg8O23HjpTQByywTxcmWfWmzW1/15SxFs1rWPIXn9r8XUm2ZNEKS6nWwBrv71xLTCy6z0ybqWM87OeF5wkhhBBRhn9by3L2rP7KVu8qYRVPKRF6l2yrRrW26vX62jubEuyUqufbBeeUswRfuYTE2c4ksyIJCQc5oJCYCq2QNyEkQFKvEF/Y4vPtsm3b0t6JU2z7th2hHZawE0uWtJLhqULdztanS93wOgcjn53a7XX7/L3B1vSYtTZ9WEe7oOIZ1mzIx5ZeMmlSUpLlKZxgx2RFS6Zst72HfeK+Yy5ZsoLV7dzHutQ9MbxS5kjZvs12WBErceL+dihZoa517tPF6p6YBakFIcG4MymvJRTdL7IgvnC85du1zbbtSrGkvZ1rCQdpo0wd42E/LzxDCCGEiDKyQkr8k5RN9u6TL9qKUs3tyosLhhTaYpvw1Awr2m2CTXl6gPXu0c26tDnXjvM/PX9ZK1fKs+9Xr7L0bTcFrOLJZS1lzUr7OtUKe75eYat3l7KKFQuH5/jktzJlS1neApWt7aBhNmzY/mlIv1bhdQ5C8gabN2W6fVe2oz3w3GT76Kv1tmzEWfb5g/1t3Pdp62TltXLlSpv3/WpbdZCY8vz584f2ucf2ZKTeRf4yVrZUXitQua0NSnXMw4YNsX6tTg+vlDnylylrpfIWsMptB6XaX2ga0s9anZ4FoqxARTu5bIqtWfl1qr7bY1+vWG27S1W0ioXzW9lypfa2Ufqdm7ljPOznhWcJIYQQUUYWibI9tvWX1fbNNyvsiw9fsWGdG1nHl/NbxxEDrFECywtaXIEU27h0vq36O6TZNi+zl4c8b1/u3mNJiJm46taq5Wm2ZvyD9txSIv+T7IcZI+0NF1kPcXZBhw529rqxdt/jC/cG9m9ZZE/dP8ZWn9HerqkVEn4HEGc12rW1SmtHWd+hn9gmtNSeX23O8I7Wbvi8vascDG+jvfOfDnbV7WPtaz85NE9ey5s3v8XlT+uUjLNqrVrYad+/YA8+s9i24M37YYY99/py8+VbodNOs5N2fWEz3vslNC/Ftiwdb2PfPzAzcR9xNaxd20q2dlRfG/rJJrePPb/OseEd29nweakzVQ9O3vhCVtDbbJs27VWJcTXaWdtKa21U36H2yd6GsF/nDLeO7YZbBnd5aOIusA4dzrZ1Y++zxxfuDbTfsugpu3/Majuj/TVWq2CcVW/V0k5bM94efG6pud4NtdHIN5bvE1WZOsbDfl5IA6+dYg/e/YTN3phuKwshhBDBJBxbdsS4QP8CLnHQy5Mnn1cwsax3TpPu3hMf/eTtj7lO9n5563bvvGL5vbxxhb1Cccd6VVpf7lUvFO/Vf2L93lU2f+oNaVjGi8tf2EssXtRLPP1Sr2GVguFAf9jpfT2hi/ev4nFewnGlveMSCnolqnXyRi/bF0Gfhh3e8jGdvKqJBbxCxct4pRLjvYRTW3oPz90cWnaoQH/P+2v+o16r04t6cQnHeaVPOMaLK1zBu3T4XI8tDwz0h83ep0MaemXi8nuFEot7RRNP9erUKOcVOOlGt9Tbs8Z7vt3JXqF8hbzEEsd6hUuc49U997j0A/15v2O5N6ZTVS+xQCGveJlSXmJ8gndqy4c9d9jhQPz4y18I/RVm57tet7LxXq3ha/a+3/GJ1++cwl6+gsd4Fbq+uXfW8jFep6qJXoFCxb0ypRK9+IRTvZYPh7/PAezdf0Lrl/fvf8dbXpdS8S5hw4+r371kgFc9vpJ352fhtI2dX3sTuvzLKx6X4B1X+jgvoWAJr1qn0d7+rtnfRoVdG53uXdqwilcwHOgPhzrGAwL94TCft3VqF++kxOreffP9tBIhhBAi+OThv73yLPtJ2fq9LVnyg+0pdZZVP6VYOsVSt9tPSxfb2p0lrXL1061EOhUNUrZtsOVLvrPtx55sZ1cubUUOZ+sLrb9syVr7q9BJVqVqBUvMqMcuZautX7bMvt8aZ2XOrGanFD90eYXtPy2zxd9utxKVqtimoedag1lX2c7F/wkv3Wm/rPjSVm0ubOWrVrXyBwTGpc+2Dctsydq/rNBJVaxqhcTMFZbdtt4WLf7Z4k4+26qU8v1522zDsiW29q9CdlKVqlYhww2RUVJCx7zclny33Y4NfW7l0kX+YYbd/tNSW7x2p5WsXN1OT69zM3WMh/88IYQQIprIUVEWi6T88IJ1aD3RTr71brvqvBL21xfjrO9to2xPrzk2r/854bWEEEIIIQ6NRNnRkvKHzR91vw18Zop9tuoPs5JnWv3rHrBH7mtu5VW7VAghhBAZRKJMCCGEECIAKAxHCCGEECIASJQJIYQQQgQAiTIhhBBCiAAgUSaEEEIIEQAkyoQQQgghAoBEmRBCCCFEAJAoE0IIIYQIABJlQgghhBABQKJMCCGEECIASJQJIYQQQgQAiTIhhBBCiAAgUSaEEEIIEQAkyoQQQgghAoBEmRBCCCFEAJAoE0IIIYQIABJlQgghhBABQKJMCCGEECIASJQJIYQQQgQAiTIhhBBCiAAgUSaEEEIIEQAkyoQQQgghAoBEmRBCCCFEAJAoE0IIIYQIABJlQgghhBABQKJMCCGEECIASJQJIYQQQgQAiTIhhBBCiAAgUSaEEEIIEQAkyoQQQgghAoBEmRBCCCFEAJAoE0IIIYQIABJlQgghhBABQKJMCCGEECIASJQJIYQQQgQAiTIhhBBCiAAgUSaEEEIIEQAkyoQQQgghAoBEmRBCCCFEAJAoE0IIIYQIAHm8EOG/Y5rdu3fbpk2bbM+ePeE5QohoomTJklaoUCHLkydPeI4QQsQWMS/KEGEffvihm7igJyQkhJcIIaIFfse//fabVatWzS677DL9joUQMUlMi7Lk5GSbNGmSfffdd3bhhRdaYmKinrKFiFJ27dpl8+bNs2LFitm1115r+fLlCy8RQojYIKZjyr799ltbsGCBNWjQwF3IJciEiF4KFixoNWvWtB9++MG++OKL8FwhhIgdYlqUvfnmm9asWTMrUKBAeI4QIprht1y9enVbvHixpaSkhOcKIURsELOijBiU7du3O5elECJ2KFKkiO3cuTP8TgghYoeYFWWEyvEknT9//vAcEe3Qp8QJpn7NKEeyjQgmhCHkzatqPkKI2ENXNhExFi1aZG+99ZbNmDHD/f3777+Hl6TPL7/8Yu+9954L+J48ebL99ddf4SWHB8vpu+++az/99FN4johm5LoUQsQiEmUiYhCsvXHjRme9Inh77NixtnDhwvDS/dYtn7///tvWrFnj4or+/e9/OzdWRuEmvnr1arcPH9Wsi15k8RRCxCIxWxKDYrGDBg2yFi1ahOeIoDF69Gi74IILrGrVqu4mO3fuXCfUbr31Vvvxxx/tyy+/dKKtVKlS1rBhQ1u3bp2zdnXt2tVeffVVa9mypSuL8M4777jCwGeffbbb32effWbly5e3k08+2TZv3myzZ892248aNcqaNm1qpUuXdtY5lhUtWtQtIzuXzyOA/IQTTrDixYu7fcn9HTy2bt1qS5YssVtuuUVuzByEh5gdO3aE3wkRG/CQT2Z3UKozSJSJiIEoO++885yY4jREKOGivP76623YsGHOGlaxYkV75ZVXrFatWi5pA1HG8hEjRli3bt1szpw5bttKlSrZlClTnOiiLt2ZZ55pZ511lis4ioCjrhWf16RJE9u2bZutX7/e6tSpYzNnznQ/yPr16ztL3SWXXOJEGeLwoosuUqJIAJEoy1n4fVFaiALcXFf5vQgRKxAGQ6mdevXquQLzkUaiTEQMRBICyh9pAauVX8Lk0UcfddXb4+LinMuSIXb44aQWZR06dLBp06bZNddc45YDbsrXX3/9oKIM0VamTBnnJiU7lxgzMvm6dOniRB1uVIQi1rsSJUqotl0AkSjLOfg9jRs3zlmpeUjSQ4qINZKSkpx3hWs915RIe0d0RRMRBcvVjTfe6IRWx44d7cQTT3QiCTFWuXJlJ46uuOIKJ9bSwg059U2Z7Xz3Cj80SFs6gRg1hNyKFSvs9NNPt+OPP97NZz+XX365tW7d2gm58ePHu1cRPLh4IqgV7J+98Lw+a9Ys+/nnn93vVIJMxCLca2rXru3c81OnTo34dUWiTESUY4891o477jg75phj3I+DGy4WKsQUAopg/mXLlrmbcFpY5rsa//zzT5eR+f3331vhwoVt1apV9scff7gYsbQQS4YYY3vcpcStsR2Zndx4GAGCz8ciI4IHT7JK0sh+eLDBbVm3bl25LEVMQ2wyHhLuNZF2HkqUiYiB+IqPjw+/2w/uzE6dOjlr1vPPP+9iwLCgcWNAwGHVQoxxcyYWDPE0YcIEJ+wI7q9Ro4ab9/bbb7v1/SG2+Jt9E0uGCEPE8UMsW7ass4rhQn3ttdfsxRdfdEH+J510UviIRJCgL+W2zH78ByMJMpEb4GGeB/lIP/AppkxEDMzE3GCZ0sJp6U+pb8C8Z33/1Yd9sZ6/jAlSr5t6m/SWg2+69vclggd16gg6v/vuu5Udm41wgxo5cqRLfpEIFrEO9wEeyu+88859McqRQL80ETEOJXyYz3LMyvztT/42/qs/+eul3jbtuqm3SW85E/tJvS8hcjP+70IcPVgd165d60IrUk/MS12PUUSGoJzrEmVCCCFENoNb7KOPPnKlf8hoZeLvjz/+2C3DUuNb8H3SmydiG4kyIYQQIpshNu+6665zZRfIKqfkD39T0ufbb791Ma645f3h4wilWL58uc2fP9+5kklowqJGPOybb77pyjho2LjYQ6JMCCGEiBC//vqrvf/++06kIb6mT5/u5lO6h+xXstKxqjHiCAlJxD1RVJskKUZB0SgLsYVEmRBCiAyBK82vASiyBsrwNGrUyFnGyAD/5ptv3HysZGSX/+tf/3KWNaCwNsktWNYIRqd8D6JNxA4SZUIIIQ4JgmHLli2uzMyiRYsU55SFrF692hWrRmj9/fff+4L+qZ/o126kniOvjHrSqlUrZyWbNGmSG/dXSQKxhUSZEEKIg4JL7a233rL//e9/rg4gNfyUkZl1ECvG6CINGzZ0dRQp+UIx7NNOO80Vt6a809dff+2EMH2xadMmN1wco6Bs2LBBI4/EGBJlQgghDgABQKzTV1995QTZGWecYe3bt3dDn0mQHT2ILyag2DVj7j733HNOkFWqVMllZDLW6Lx58+yNN95wxbIp3YPlDPfmCy+84GLOKHBNUWwRO8R08diBAwcG4gLCD404DEzPIvfCE20kixLGCpQPYJSHRx55RMVjsxhuB2T0zZ4921auXOncaW3atFFV/ywGVzDglsT9+PvvvzsXMdcHRlLg/sV7LGaILqxpzGcMUl6xmHFvY331TdZBEkWfPn0iep2OaVE2ePBge+CBB8JzIgdPmxQIbN68eXiOyI089NBDrlq0ODrINiMbrVu3bhJlWQS3AYYm88ePrVevnnOpMXwZFf1lHct51q1bZ6+++qoTCAhlymcwlJzIPiTKshGJMhE0JMqyhlgRZVhCsHhgjYok1MWi9ML69etdrNKFF17oRBjHNmrUKImyCIKHhX4gQzO9cYJF1iJRlo1IlImgIVGWNSDKiL8h9gYBwQ0r2vj5559d9hyu2EgPfI8rjYxKjql8+fJWpkwZJ8Jwk61YseIfx3fKKae4YH8hYg2Jsmwks6KMp8XPP//c/V28eHErVqyYlSpVygVWkpqMaf/UU091ywmARWRRPyYjTy+5VZTNnDnTxUOcc8454Tl72/mpp56yW2+91dXkyU3klCijjRlTj2KUB7Mk8fsA6h5FG4gyLDgnnnii+54IM4KlOZ+ixaLz+OOP23nnneeOnbFWIw0xegsXLrQ5c+a4rL+6deu64xozZowsZSLXEARRpuzLMD/++KP997//danHn3zyibuBPvbYY87FQBE/xigDBNqwYcPcE6QCLA8NF3eEbWoQA1z8fVEgsh7iTziXsXQcDAK5ly5dGn4XfSA2r7jiChdng3uH3yQPAdFwXiGANm/e7ERZEAQZFClSxGX79evXz0qUKGHPPPOMvfjii86SJ4TIOfI9EAT/XjaAmOKpjye+jEDtF2rCYMngqRvzPDe2OnXquMwYMudIB7/33nvtoosucuOVkaKcEdg3WTQEzuYmuOljiMXqyFhtDB+yfft2l0l0+eWX70sJzy0wJEqtWrXC77IPztVPP/3UxQeRUs8DB21OnSluvr6IoVglVkwsaywj9Z51cU9xbiOeX375ZRfXwvbMwxrF74obNmPv0bdYlqdOnWrfffed+zwsytlZZRyhsHjxYjv33HOtcOHCduaZZ7p2XbJkiQtUJ0arbNmygbUCcpz0A8cdNAsUfcwQPrQnApf2pP/p49z2exW5D7xaNWvWdNeVSCFLWSpITeYCxISQ4tV3TyLMhg8fbmeddZa1bt06ME+4QQarIzd5LI8IMoYMIX4F96/IGeiDsWPHurgghmpBTGGa5z0PHIgqHj4Qz9dee60rg4BVGGE3YsQItw7uQuoiEXOEUJsyZYq1aNHCWXqwqPBbQQRSzwqXaU5bkBE2/E4p3XDTTTe53/HDDz/sBnf2Sw8EBa4p1KBCUAbVJchxIarPPvtsd5yEIFDJn/bkOhijES9CBAKJslTwBPvggw/af/7zHxfzgTWHmxZg5cB1icjA2iMyDpld1atXdxNjtWElEDkHliturjwBUqQSawg18wjo5lzmnEZ4YQ3jhoyIJh2fgqFsR9wT8VuwbNky90CC2EOMUciS3wX7RHTz0BKpjEiOnSKbCMYePXo4y/cTTzxhH330kbOe+fUCIzHRvrQTFkUsTqVLlw4fdXDxxRnWVFzFnDMULOU6KWEmRPagQP8wmC2xGBCAjmjg6dB3wXzwwQcuCQDX5j333OOWEcuSUYtAbg30J0OuQoUK7vuTIXfddde5GyUWmVdeeWWf4M0t5FSgP9YurLoIkpdeeslZjhApWI0YmuXZZ5+1Rx991Jo1a+bOZX4njKdHIUugr3C3457s27evExS47VkHawmiAhe/DxYVCrkSEI7ozm44HkpiIBqYDgWuWWLNEEEcM+IxEiAIOe4qVaq4AqDRUMoDN/eAAQOc69KHsBBi4lQIW8Qi3Kuw/iv7Mhs4ElE2ceJENwpA2gs3oowbXc+ePd2Fin1yI+ratethbwqQ20UZrqXXX3/d7r77bveUzYX+/ffflyjLJjIiyliGOxMhddddd1nLli1drCRWJYQDDxz33XefmxhfD9GFQKOWFeUTevfu7dzQWNSwkA0dOjTHRdlVV12Vrrjhkob79b333nOFUBGfWPwiGXLAdYIYN44hI9eMIMC1joendu3aRUzM+jz55JPuQVhkHrVdxkGQcV+PpChToH8YnqjJWktvsF3cDjzpIsSwEhAIi6jApYO75HAX2dwa6I8QJZMLtyVB5bQZbUG7UTE8txVDzKlAf87lNWvW2MUXX+zclbQzbkUeVHBR0vb0C8kXiObzzz/f/VZmzZrlXJkcI5YlRARxYuXKlXMih+1wZXEuEyPI98E1SpYtQpDBqnOi5pYf6M9xEpDL92NCSJLVyHfhQYrvhXDDDcsyvk8kJ4RNtAgyQPyuXr3aua+57vntHIlp/vz5Tvynt0zToSe1XcYnPGJc4yIZ6M9TZUySlJTkDRgwIPzu8IQu9N7OnTu9kJgLz9lP6GbmhURZ+J3n1gldsNy89NZPy4oVK7xp06aF3+Ue6APaDminLVu2uPe0XXJyspufmxg+fHj4r+yFc3n79u2uzTlH/XOXNmc+r0zbtm1zfQRs88cff+zrl61bt3oh0eb6LCTsvN69e3shseeWAcvpRz6Did+O39fZDd/h6aefPuDc4rtMmjTJCz1jeiEh6dYRR8fvv//ujR49OhC/1Zz67cQiaruM88gjj3ibNm0Kv4sMCvQPg1uBp+n0nmRxkaRO8WcdVDXzounJN6fBOuC7l2gnxm3jPW0XaXdILMO5jGWDNucc9c9d2pz5vDLxNEgfAdvgTvb7hfVCose5L3E345pMHUdEaQz6kc9g4rcTiTgpXLK42AhVwOVAzCfuSo5f5CxYULGO4zLGYkmCgw8WcvrKh8QLSqiEBHV4TnTBd8PSjAclNbjzSZTJLZCRnbpfxdGjO6MQ4h8g0sg+JrqB+LTGjRuHlwQDXJjEKRIbd/zxx7uip7hofJEpcp533nnH+vfv72JJiZ8kjokYRYQXpVhwKQOucIQ+Bbij+aGWh5a0EKZBYklugSoFh/q+CDZ+p8nJyeE54nBIlAkh0sW3nhF/Fgkr2KHwPM9lBXLjR4xF0xBLsQrWI4aeu//++122LgW2/ZElmLAqEe/ISCnEMpIUEq19xnHzMIBlGasfdfqIZSQzNTdBSR36nTYgXpXseiyIJLfRFiTbUNeQGFDWI1GIItUIOcQ5v2NiFyk6zTrEtH755ZdOxGFtJcaLBDz2x4MY25BoRGY4nxWLSJQJIaIOLGKIsWgcjDyWoV9wZeMaZ3BzbqK+i5KbL1m6iPwuXbo493e0gsBkDF++E8Lz1Vdfda483xqY26CoMNZRBBliDGGOAPNd2IhyhBU1QHnYQ1SRFcpyRBdCjdqHFKxmoH7al4xvLK2cU5w3JBPhGscqTlIS+4xFJMqEEEJkCVgxGCwewYK1jPICfnwfZUwoPkz2ejQLstRg+SOO7MYbb7S2bdu60iu5Fep7EuZw9dVXu4xsSumQAY04J4OXLFCGFqNiAVUOyAwnuxfhRamg9u3bu3MDsJhRcof1KHLN0G9+rB61FW+77TZnbY1FYlqUYRpFcUd64mmA+IP0lmnKPRMm+fTma8r8pBiVYIIbmXFHGYKLmo9XXnmls4wAooWixVhFGGqK63O0w3Wd78f3htxWezE1WEARTIClNK0lC/ckQssffo+SNljBsDD6Ih1RRqgEgo35jBjC+qVKldpXUgq3cSzHjsZ08dhBgwZZ9+7dw3MiB08DmHLJYBO5FwKgeaIWRwcXewZQZ/SNoMW6xRIUj6WdGYnDz8o9FM8//7yLA6Jf0q6P+4kbLoVo3333XefuwzpSuXLl8BqHJqcKL2cUYqgoxMxvmqH5GA8ZK9nIkSP3FRgPCtnZdvQ1RacZwg13I25LxBltQnwhQgrLKdnRuCsRa7Qb5wlJAAh4ilczZi2WL9yXWFbJoCb2kOxvhB5uS2onci/F3TlkyBDnJs9qeGjo2LFjRIvHyn0phBAix8DFxQMqN2rcf9EMDwVYfIgrw11LkHpuBet1Wgs2MZ+4d4kTa9q0qXNpIlhvuOEGl62LxQtBiwAbP378vnJJFKWuXbu2E2mUuSGrF7GbG5ClLAeQpUyALGVZgyxlOUNmLWVYjwjqp55d2qxKrCL0FXFHQCYd1hLWzYjFI2iWMr4n7eOPC0oWIgKTWox8tyAloGRn21GbjjqI9CHfn/FzcefS36nn0160CaKN5A+W8Z7zBCsYr4z0QvkMzhMsqkgTEilYnzg09kUoEG3tb5vVyFImciVctKjnk16dH7EfLj7pZRhxkaMNjwQucEdT7JGLJA8Y/hMxx8jkP9sR78X+/YlMLJaxTur5fC/iS7ioi9iAuCpESXo3S27WviADbrzc+LLDBZUTIFI5fl6Z+O6413gNkiDLboiho1/pTwSqHz9If/uFqmkPlvE3ljHiw3Bxsi7nCtczxpzE2khpjEaNGrn5rM++SRTwC1VzvvCZ2SHIgoJEmchxuEFTkHTr1q3hOSI9SBufOnXqAQIM68Lo0aNdhfQjgfpAR+piQVzNnj3b3n77bSeoGReT4q24HigFwPKFCxe6vuWJkwlLC0KN4O6HH3543/wFCxa4FPeXX37ZLRdC5D4QV9WqVXMehBo1alifPn2cYMvNSJSJw4LpmVgAxAGm5tRiCosJ87DA+NYSatbw9IM1DKsK8zH1k03j1ywC9rN06VIn0gArDNYTBAfbAy4R0ujZ3t9/boEB8AmK9gtS8v15ksTKxNMn7blkyRLXbkBf0H60FeKN9ekLYjr8dXxoe/rNb1N/WzKk/M/z57EP9kkfkzXXqlUrty0DzFPygPeIR1wLfC7HzcWViXgRnogZ1J+//fmkyBMzwja5aVgaIcQ/oeQF1wO/JEZuJt8DQUoTyUK4+XMDITU70nBDw2Vz8sknh+dEF4imu+++24kBRACZU9SP4QbMMBuIr7lz59qaNWtcHRrGIiQ2AHGFqPjpp5+cVQTLCiZp6s689tprbuw7btaTJ0+2qlWrOuGHNYUig8QXUM2ZZbi4pk+fbieddFJEff1HCxWvM3M+YqonHpH4C0z4iKQXXnjBmjRp4vY1bdo0J7aomH3GGWe4bQg2Xr58uRNtiCiywWj7GTNmWKVKlVyqOSnmvH744YdO2FWpUsUF3dJn9LG/P8QU2U8INdwIpKeTPcXFE/dE3bp13Stinb5q2LChe2UdJqxpuBqwhFGLiHODcwkXBrFEnAt8N46tTp067n1G4PP4TjxZZ3QbkXk4t2hnsugi7S7i+kJAvcg8aruMw0PvOeec465fkUJXNJEhEFgICrJmEEfcoBFo+Pp79uxpvXr1cvMY+gLrB08+pDmTLo0AuPbaa132DZYx4IJPMOfNN9/sCg3i9kJIIwrYH6IAFxc3esZgJHUeEZKbQBRxMeVCgbChD7AcIq5oD6qiN2/e3Ik32hh4ACBQFZFLezHUDX1DxhttC8R/UKixc+fOTkjTF/QXfXvZZZe5C9KqVavculgs6SdS3hFwWMG4QSOmEGoILwqGItLZL4KLIpFkW5EKj8BDRHGe4MJEjJMaT98CKfEIK99aKoQQuRmJMpEhqBVDBgw3YwI4udFi5aK2DKIAywc3c0QZN23q03CDxrJFejM3bIJg/eB+LDnsj/mYrNeuXessQViE+CysY7jNGE7jpZdecla01IHCuQHasXr16s7SSLFF2gJhTDtjTUT44DaknegPoD8IpEUY0xcIaNqdzF/ELyDY6Ef6hu1od8QZ+2OYFMSf30/lypVz+wD6hH4G3J5sy0DTCEHqCgHCm0wv0tipR8SYgLhDEZC33367m4+lDQsqcI6wL99dLYIFfaNJU26aIo1EmcgQ3MTTuor8se2AkxlLCoINMYHY8knPxcQN3rfcELfEdliG/O34GzHBkB3czBlWg9T83AbtgoghwB4rI5lJiDTeY/1C7NDeflsi2Gg7XhFTuJiB4H7f+sXy1CCuiQ/DKomQQmQj1ID+oP/4DI7FD8pH9OFqxj1JpXZfMOPu4pzgM9gPFjLODVygCD32xTx/fayj7Jt1RfDAgsnvE4EfyYnjSG++psNParuMT0Gw2EuUiSMGCxixcsSYkRGIWw2hlhGwkJB5h0uLQH7cY6khAwfLDvFpuMCIbSJWKjeCdYxYLSyLWLf8NHQyKRljkLgu2gix5oOIJpiegozE5TGlFsqp8dP4yfaklhqCjvi/1PtDZGHBJMYNkYXlDgHG58yZM8dZ8bh5I9ao7M35MGbMGOdmZTvWpw+JicNK5vc3VjmEHqUUhBAit6NA/xwg2gP9sWQQeE/8DzdnRABWGOYRvI2VBjGGFQf3FstZl5s91hXcadz0sYZQywdxQVsQYI5FhsB13J3c4EkCYGwzLCpnnXWW+xv3V7169dz6aa080URmA/19aEfahbgt2pZ2ov2wONFGWMxof9qVV/qFduJvtkMoXXzxxW4b+of+YJ+0Me2LixIBzHti+dgf81jGPlgfQcfnErDPcDIIM84B5rEdE+KL/SDW2T+uVz6Xfme/HAufT4IAfcl5hYWO7Qgmzyi4TRXon/0Qa4h1lt84fRVJjvS3I9R2mYH4WNqKB9NIoYr+OYAq+guIhYr+BOkTA0iCwdFCWQ2sabfccosTgBmFhwBV9M9+eJgkZpBBxSMtyjQaxpGjtss4XI/QDJHM8tdjphAiw5DNyQ0aK8rRgCWbjNEOHTo4S5kQ0QA1//wkmFiEuOCxY8ceEPDOb5VwBpKLjgRKJlEw+kjbjfhjEoS4XlBGiQcFhCZWez/BCYsuoRqETWBFZ5uBAwc6g0i0IVEmhMgwxLNdeumlzi19NOB2xLVJHGKkrTBCHA5ECkkzxEQSO4lQQWQQE0loCu99CBegODOhGf54oNECIRHUMcSz48MDGHHDxH3yNwHxvNImfDe+K3GhfFfm0S6IotRB88xHQJEp7icRMQ+rd9r9kYlNG7I/tiH2mGQn4mjHjRvnQmAIXUAoIsA4VmKPiV8lLIJSPIRvkBE+ceLEfcItWpAoE0IIIQ4BQoICywgWkmqIc+Xmj7uLZBuGGQNK9zz77LOuaPN7773nxEw0WdaIWaVkDlYoBBJCiTqJ1CdEeDE+JRYpMq+xGiKeEE1Y16hB6AtXwhyYWAcQrtRNfPrpp/cJJRKJeM/+RowY4crysD/GwWR/CC32R/1LiksTm0rNSmJSEWAISEQx86mDef7557s4Vh74OHbibcHPOo8WJMqEEEKIQ0DsIoWVSUiiODOiAosN5XratGnjhBrCDSFGYgwlfBAdxE1GEwgaEq8QYliqsGSRlU08NNYsko3uuusul8yDSEW08T1J4KE0DtshpKhVyDp+xjxlctiW+FFGEmFfCDUyxBktBgsXY+qyPyxfJBBR4BoRTJtjmcdSxjiZFBpnzF3iUHlPgpM/ogkCjkQnAvURbSQ3kegQTUiUCSGEEJmAkj645yhsTYkXkiJ4zygniAhEHFabaKy/V7x4cZd1jYUJwYW7FusZoogi38RtEavFfJ8GDRq45ZQ34vsjiBgTF4EHfhY34orMbkQZ67AfLI6IN39UEkAEIqxoV/brhzjwSmY3gphYNWLgAMsY1j2GbOvWrZvrH9YlXhV3qO8yjQZiXpTROZGe+IHi405vmabcM/EUmt58TZmfFIcmIgm1+ZiIi2QoOVyUWHko/eP/jaUpmsSAD9cphnfj+zFuJq5D7l8E2BMrRqwWGdh8RybwY0yxXuGCBEQq9QmBeyD75XfLK+CexIJGJjdCDliO1Y3fOPC5CC4gdg3Rh+sSKxpjVFKUmmMgGxthR4FxtvevDyxjH9F0vYjpOmWcVJxAKO5ITpxMnKCYWtNbril3TP5Ynukt05TxiQs2F2fqpfkXeJH1YM1QnbL9ILAILscth5jANUnbIFyw8uBGw4qDew0LDe49tkG4RbJ0S2bbjr7m+HHJYhlDABFrhiWK3x/Ci2LRCDTqEq5YscIJUyxfWAaJHaMmIa5crFkIONyKBOcjkhh6jeNBUCGYsKDh0sQqhuDiM7lXIq6I3SOYn3gx3KK4LdkG4ct+mM81gDi1li1bOnGIGPYNIWgA9kNMXEYIQp0yXdGEEEKIw8ANnxs/YoIbNyKDBy0yA6mZR5xZixYtrH79+k5Y4L7j5h5NVhofvivHT0Fwf+xbytcguubPn+9i5ijojWuQWDFiwIDYrq5du7rC7bgdW7du7bI2sWrRDggo2o79M4Qey4hDu/nmm50BhcB9HrZ8UURMGMIOoYV4I4YP6xsiDtco++IYEMfEvjF2LxNuVwQdYhBRHE3EdPHYwYMHWxAMgdR34UeaFQU3RfTy0EMPuQBYcXRgwSE1ntiRSFogYh0Vj/0n3C6ZaA//b99ay98EpmNtQaggHLD8IAoi2X5H2nZpvx9g+fPFlb8cmJf6O7Ie66RuJ3+5/zfT4faHxwuRhcBq166ds3756/n7Zx1/Ox/mkziAgOO78z4jqHisECLLwcyP2f5Qqfikt/uDmAtxMNK74eVmuLn7YoBXP17Jf3/KKae4Wn64LoHhwzIqCIKG/51Sw/f15/nLmdJ+R79dwF+P19R/w+H2x99NmzZ11zTqmfnrpN6//z71xAMF7uUrrrhi33qHwxd7kUaiTBwVnMRcuFNfvP2T2192uPmQ3jxxZHDxwpKE8PLbO3X7MhETQrwQfwOvPLX674G/U2/jL/Pnp13mz+dVRD/c3HAbqT8zDnFVFFfGvYeFhngmcXTQprg3GU85o2DpYpvMDN/GtYtrZiTjySDmA/0pNBdp8JMTFOlnmMQStDFp4RRP5IQmqJMCipiO/SExmE9A6OzZs12BwE8++cRly/DD4UdDkCwFCAksJSmCH180ppIfDgKCyWrKbghCJgiWJ0zamgKOxG1Q3JFYDs7FYcOGuXgLnuR5TyYUy+kzzlNuyBzvhAkTnEXt888/d/OIAaGvn3/+ebdvrAL04xtvvOH6ls+lSr8fY5IdELtDXI8C/bMXEiqIH6L8AAHskUSDah85aruMgYuUUCNi5SJ5XdEVTRwxnMRkwXHzZ0xEMmAQWJia+ZsiflRgJqYBVxoBm4gxAmMRaQgBgjSHDx/ubuzXX3+9s96QtaOn86wBoYSwIvuIB5RJkya5mywZZMQ4kmVFlW7EVa9evVyALBlmPEhQqZxgX+K22G7jxo3uJk3/dO7c2QUBU72c+QQ8E0Pz73//2z3ZiugHEc45QkwPFjMhYhWqI1DjjIQEzvtIIlEmjhisWdSwwdJCGjiCjJs5EODKCY7VhRs/Jz0gyIi7IBCWejb4/nmSo1o2QoEbPcIMS6fIGrBcUTGbYpaILgQvJnqEMKKYebg8Z86c6foEqxjxGGxHP2KRQsgBIhw3J1Y0ikuyHuPZcSHjCZM+jPRFTWQdnDdYUydPnuz6mt86iRY5PWEdTW++psNParv0J+5JjCrAg+vrr7/ujAgYGDIag5ZdKPsyB4jV7Evqx/Tt29elMjNcRp8+fWzQoEHOUsLTdb9+/Zzri3XoC9xj3NxZH5caY5zddNNNLoUa6wwuLywuWHYee+yxmMusy6nsS/oF6yM1fXAtI6J69OjhLkBYI7FuPfroo64fcB/TNwyRQuFLwEWJuMYVSR9yAbvnnntc0CwuaFxZNWvWdOsC4o2x8KjCTWXv7IbjUfZlzsEtgoxCxDptz/mU0/DA55dmEJlDbZc+PPhz/SCkgzpreBOCEA4hUZYDxKooI06JmzFiAyHAjR63Fk/XU6dOzZAoY50hQ4a4oqoMIIsgwwLHGGmxFi8UJFHGMvqpcePG7pio+UPqPq5JCjcizBiTrn///i5GkPURZqSYUw+IekEMcUIMGk+XxKhJlMUu/m2C1xi9ZYhcCFYx3zIWaQuZj9yX4oihYB8BpIz0T7wY9V1wbyHEfHcXwopxz3jFjUllaMAqxtMbVjW2w4XJjb9EiRKuSGFQfiDRCG1KwgVtjiXMz0DiPbF8CBlixRBX9Fvv3r3dQ8OIESOcKZ+x7+g/BBxxf/QV27EfBBhWMgQ1go9YNJaTnIGQE7GJf/PiHMI9rUlTLEycz/65HRRkKcsBYrl4LFYYLBf+oLHEJHGiYxr2xy9jHjduYhtYB1HAct774xjynv1EawXsjJBTljLakvPfb3OgnfmpkwmLJdL/m/l+fxDMjWuS/uNvai2RHEDcGckAAwcO3JeFR5IH2/EZwOf5F7rsRpYyIUSsIkuZOCq4CXOj9oUUN2n/Zs08JkQAr74AAG78/jr+e1/YiaODtkzd5kzAe6xovLIOsRSp+wNLF6/AMtblwQb3MgkYqcsi0Ff+ZzDRlzkhyIQQIpaJWVHm33hUtVyIzIPAogjm0KFD7cknn3Qxf0EByyuWPn7jQggRS8SsKOOmQlYYsUox6qEVIlvxrWm4lH0LWhDAnYqFT6JMCBFrxLSljLpJVJanSrwQIvohDu799993mboSZUKIWCNmRRlQHJMUfUoAUOBSCBG9MHIArlTGE6SukESZECLWiNnsSx+yA6k2T9FLApMRarzmJAhCKmFT7VzkXqjrRpFdkTmwjjGeJ7Fk9evXd3XUlHUphIhFYl6U+XBBJ82feJRIVKQWQhwZfmYoIw4ow1MIEcvkGlEmhBBCCBFkYjqmTAghhBAiWpAoE0IIIYQIABJlQgghhBABQKJMCCGEECIASJQJIYQQQgQAiTIhhBBCiAAgUSaEEEIIEQAkyoQQQgghAoBEmRBCCCFEAJAoE0IIIYQIABJlQgghhBABQKJMCCGEECIASJQJIYQQQgQAiTIhhBBCiAAgUSaEEEIIEQAkyoQQQgghAoBEmRBCCCFEAJAoE0IIIYQIABJlQgghhBABQKJMCCGEECIASJQJIYQQQgQAiTIhhBBCiIhj9v9AAAIu7QDZ2AAAAABJRU5ErkJggg==;" vertex="1" parent="1">
                    <mxGeometry x="80" y="990" width="613" height="177" as="geometry"/>
                </mxCell>
                <mxCell id="59" value="SE CREA TABLA INTERMEDIA POR TENER REALACION MUCHOS A MUCHOS" style="text;strokeColor=none;align=center;fillColor=none;html=1;verticalAlign=middle;whiteSpace=wrap;rounded=0;" vertex="1" parent="1">
                    <mxGeometry x="100" y="1720" width="520" height="100" as="geometry"/>
                </mxCell>
            </root>
        </mxGraphModel>
    </diagram>
</mxfile>